<svg xmlns="http://www.w3.org/2000/svg" width="56" height="63" viewBox="0 0 56 63" fill="none"><path d="M28.445 38.3766L28.6461 38.0784L28.9477 37.8795L29.0483 37.7801H29.1488H26.4005L26.7021 37.8795L26.9032 38.0784L27.1043 38.2772L27.3054 38.4761L27.5065 38.5755L27.8082 38.6749L28.1098 38.5755L28.445 38.3766ZM28.8472 18.1609H21.4066L21.6077 26.1147L29.1488 26.0153L28.8472 18.1609ZM46.242 58.99L45.2366 57.4656L44.1305 55.9411L43.6278 55.444L43.125 54.9469L42.5218 54.5492L41.9185 54.2509L41.2146 54.0521L40.5108 53.8532L39.8069 53.7538L39.1031 53.6544L38.6004 53.555L38.1982 53.4555L37.5949 53.3561L37.0921 53.0579L36.7905 52.6602L36.4888 52.2625L36.2878 51.7654L36.0867 51.3677V50.7712V50.1747L35.9861 49.8764L35.8856 49.6776L35.785 49.4787L35.4834 49.2798L34.7795 49.081L34.2768 48.8822V49.1804L34.4779 49.4787L34.679 49.777L34.8801 49.9758L34.9806 50.1747L35.0812 50.2741L35.2823 50.6718L35.3828 51.0694L35.5839 51.4671V51.9642L35.4834 52.6602L35.1817 53.2567L34.679 53.7538L34.1762 54.2509L33.5729 54.748L32.8691 55.0463L32.9697 54.5492L33.0702 53.9526L32.9697 53.555L32.8691 53.0579V52.1631L32.9697 51.3677L33.2713 50.6718L33.5729 50.0752L33.8746 49.777L33.9751 49.3793L33.6735 48.7827L33.4724 48.0868L33.1707 48.5839L32.7686 48.9816L32.8691 49.1804V49.4787V49.6776L32.7686 49.9758L32.5675 50.4729L32.1653 50.97L31.1598 51.8648L30.2548 52.4613L29.7521 52.7596L29.1488 52.859L28.5455 52.9584L27.9422 53.0579H27.4395L26.6351 52.9584L26.2329 52.859L25.8307 52.7596L25.6296 52.5608L25.5291 52.4613L26.0318 51.8648L26.7356 51.2683L27.2384 50.3735L27.6406 49.4787L27.8417 49.1804L28.1433 48.8822L28.5455 48.5839L28.9477 48.2856L29.7521 47.9874L30.657 47.7885H31.1598L31.6625 47.888H32.0647L32.5675 47.7885L32.8691 47.4902L32.9697 47.192L33.0702 46.8937V46.496V46.2972L33.1707 46.1978H33.0702L32.5675 46.2972H32.0647L31.562 46.1978L31.1598 46.0984L30.7576 45.8995L30.3554 45.6013L29.9532 45.303L29.6515 44.9053L29.4505 44.5076L29.2494 44.1099L29.1488 43.3146L28.9477 42.5192L28.5455 42.0221L28.0428 41.6244L27.8417 41.4256L27.6406 41.1273V41.0279L27.54 40.9285V40.6302V40.3319L27.2384 40.6302L26.9367 40.9285V41.1273V41.3261V41.525L27.0373 41.7238L27.3389 42.1215L27.54 42.4198L27.7411 42.7181L27.8417 43.1157V43.5134V43.9111L27.6406 44.2094L27.4395 44.5076L27.1378 44.7065L26.8362 45.0047H26.6351L26.434 45.2036L26.5345 44.9053V44.607V44.4082L26.434 44.1099L26.2329 43.7123L26.0318 43.414L25.9313 43.1157V42.7181V42.3203L26.0318 42.0221L26.2329 41.7238L26.434 41.4256L26.5345 41.1273L26.6351 40.829L26.9367 40.4314L27.2384 40.0336L27.3389 39.9342V39.7354V39.4371L27.1378 39.1389L26.8362 38.6418L26.3335 37.9458H24.4901L24.6912 38.0452L24.7917 38.1447L25.2944 38.2441L25.7972 38.4429L25.6966 38.6418L25.395 38.94L25.0934 39.1389L24.7917 39.3377L24.1884 39.5365L23.4846 39.636H22.8813L22.1775 39.4371L21.8758 39.2383L21.5742 39.0394L21.3731 38.8406L21.2725 38.5423L20.9709 38.4429L20.6692 38.3435L20.7698 38.6418L20.8703 39.0394L20.9709 39.5365L21.172 40.0336L21.3731 40.2325L21.5742 40.3319L21.8758 40.4314L22.1775 40.5308L22.7807 40.6302L23.2835 40.829L23.7862 41.1273L24.1884 41.525L24.7917 42.5192L25.4955 43.5134L24.7917 43.7123L24.1884 43.8117H23.7862H23.384L23.0824 43.7123L22.7807 43.6128L22.4791 43.414L22.1775 43.2152L21.9764 42.9169L21.7753 42.6186L21.5742 42.3203L21.4736 41.9227V41.3261V40.7296L21.172 40.4314L20.7698 40.0336L20.6692 39.8348L20.5687 39.636V39.5365V39.4371L20.4681 39.2383L20.5687 39.0394L20.267 39.2383L20.0659 39.4371L19.9654 39.7354L20.0659 40.0336L20.267 40.3319L20.3676 40.6302L20.4681 41.1273V41.7238L20.267 41.9227L20.0659 42.1215L19.8648 42.3203L19.6637 42.4198H19.4626L19.2615 42.5192L19.3621 42.3203L19.4626 42.1215V41.9227V41.7238L19.161 41.2267V40.6302L19.3621 40.1331L19.6637 39.7354L19.7643 39.5365L19.8648 39.3377L20.0659 39.0394L20.267 38.8406L20.4681 38.6418V38.3435L20.3676 38.5423L20.1665 38.6418L19.7643 38.94L19.3621 39.2383L18.8594 39.3377L18.4572 39.4371L18.2561 39.5365H18.055L17.8539 39.636L17.6528 39.7354L17.5522 39.9342V40.2325L17.8539 40.9285L18.2561 41.7238V42.4198L18.055 43.2152L17.6528 44.0105L17.15 44.607L16.4462 45.1042L15.7423 45.6013L15.2396 46.2972L14.8374 46.8937L14.6363 46.7943L14.5358 46.6949L14.3347 46.3966L14.2341 46.0984L14.033 45.4024L13.9325 45.0047V44.5076V43.9111V43.414L14.1336 42.9169L14.5358 42.0221L15.1391 41.0279L15.5413 40.6302L15.9434 40.3319L16.4462 40.1331H16.8484L17.15 39.7354L17.5522 39.3377L17.0495 39.2383H16.4462L16.044 39.1389H15.5413H15.1391L14.7369 39.2383L14.3347 39.4371L14.033 39.7354L13.7314 40.0336L13.5303 40.4314L13.0275 41.2267L12.5248 41.9227L12.1226 42.221L11.821 42.5192L11.4188 42.7181L10.916 42.9169L10.0111 43.2152L9.10615 43.3146L8.20121 43.5134L7.29628 43.8117L7.19573 43.3146V42.8175L7.29628 42.221L7.39683 41.7238L7.49738 41.1273L7.79902 40.6302L8.10067 40.1331L8.50287 39.7354L8.90505 39.4371L9.4078 39.1389L9.91054 38.94L10.5138 38.7412L11.0166 38.6418L11.6199 38.7412L12.4242 38.94L13.2286 39.2383L13.8319 39.0394L14.4352 38.7412L14.938 38.6418H15.6418H16.3456L16.6473 38.8406L16.4462 38.3435L16.2451 37.9458H8.20121L8.70395 8.05311L17.15 11.0689L17.4517 37.9458H16.7478L16.8484 38.3435L17.15 38.8406L17.3511 38.94L17.6528 39.0394L17.9544 39.1389H18.2561L18.4572 39.0394H18.6583L19.0605 38.94L19.3621 38.7412L19.6637 38.6418L19.9654 38.4429L20.1665 38.2441L20.267 37.9458H18.7253V8.05311H30.523L31.8301 37.8464L32.5339 38.2441L33.1372 38.5423L33.8411 38.6418L34.4444 38.7412V38.94L34.3438 39.0394L34.2433 39.3377L34.0422 39.5365L33.5394 39.8348L33.3383 40.1331L32.9361 40.3319L32.5339 40.5308L32.0312 40.6302L31.629 40.7296H30.8246L29.8191 40.6302L29.3164 40.4314L29.0147 40.2325L28.7131 39.9342L28.512 39.636L28.1098 39.5365L27.7076 39.3377L27.8082 39.8348L28.0093 40.2325L28.1098 40.6302L28.2104 41.0279L28.4115 41.3261L28.6126 41.525L28.9142 41.7238L29.2158 41.9227L29.5175 42.0221H29.9197L30.7241 42.1215L31.5285 42.3203L32.1318 42.6186L32.8356 43.1157L33.64 44.2094L34.4444 45.2036L34.6455 45.1042H34.746L35.1482 44.9053L35.4498 44.8059L35.7515 44.5076L35.852 44.2094L35.9526 43.8117L35.7515 43.3146L35.6509 42.9169L35.4498 42.4198L35.3493 41.6244L35.5504 40.7296L35.6509 40.2325L35.852 39.8348L36.0531 39.5365L36.3548 39.2383L37.0586 38.5423L37.863 37.8464L38.2652 37.051L38.6674 36.4545H38.8685L39.0696 36.6533L39.1701 36.9516L39.3712 37.2499L39.6729 37.9458L39.874 38.4429L39.9745 39.0394V39.636V40.2325L39.874 40.829L39.5723 41.8232L38.969 42.9169L38.5668 43.414L38.0641 43.8117L37.863 44.0105H37.6619L37.3603 44.1099L37.1592 44.0105L36.8575 44.607L36.4553 45.0047H37.0586H37.6619L38.3657 45.1042L39.0696 45.0047L39.6729 44.8059L40.1756 44.4082L40.2762 44.3088L40.3767 44.1099L40.6784 43.5134L40.8795 42.7181L40.98 42.0221V41.2267V40.4314L41.0806 39.636V38.8406L41.1811 38.0452L41.2817 37.6476L41.3822 37.3493L41.2817 37.4487V37.5481L41.0806 36.7528L40.5778 36.0568V35.5597L40.6784 35.0626L40.8795 34.6649L41.2817 34.2672L41.4828 35.0626L41.8849 35.9574V36.2557V36.4545L42.1866 36.0568L42.5888 35.858L42.7899 35.7586L42.991 35.6591H43.1921L43.3932 35.5597L44.2981 35.4603H45.1025L45.9069 35.5597L46.7113 35.6591L47.5157 35.7586H48.2195H49.0239L49.7277 35.5597L50.4316 35.2615L51.0349 34.8637L51.5376 34.2672L51.8392 33.6707L52.1409 32.7759L52.342 31.8811L51.6381 30.7875L50.8338 29.7933L50.7332 29.2962L50.6327 28.8985V28.4014L50.7332 28.0037L50.8338 27.606L51.0349 27.2083L51.236 26.8106L51.5376 26.4129L52.2414 27.9374L53.0458 29.3624L53.1464 29.6607V29.959V30.3566L53.0458 30.6549L52.8447 31.152L52.5431 31.848L52.4425 32.7427L52.2414 33.6376L52.6436 33.041L52.9453 32.3451L53.3475 32.0468L53.7497 31.848L54.2524 31.7485L54.8557 31.848L54.2524 32.5439L53.7497 33.3393L53.448 33.5381L53.0458 33.6376L52.6436 33.737H52.2414V33.8364L51.8392 34.5323L51.3365 35.2283L50.6327 35.7254L49.9288 36.1231L49.1244 36.4214H48.1525H47.3481H46.5437L45.7393 36.3219L45.0355 36.2225H44.2311L43.5272 36.3219H43.3261L43.125 36.4214H43.0245L42.8234 36.5208L42.5218 36.7196L42.3207 36.9185L42.019 37.515L41.8179 38.2109L41.7174 39.0063L41.6168 39.7022L41.5163 40.4976V41.293L41.4157 41.6907V42.1878L41.7174 41.6907L42.2201 41.293L42.7228 40.8953L43.3261 40.5971L44.2311 40.2988L45.2366 40.0005L46.242 39.7022L47.2475 39.3046L47.3481 39.9011L47.4486 40.4976L47.3481 41.0942L47.2475 41.6907L47.147 42.2872L46.9459 42.8838L46.6442 43.4803L46.242 43.9774L45.8399 44.3751L45.3371 44.6733L44.8344 44.9716L44.2311 45.1704L43.6278 45.2699L42.9239 45.3693L41.9185 45.071L40.913 44.8722L40.1086 45.2699L39.3042 45.6675L39.0026 45.767H38.6004L38.3993 45.8664H38.2987L37.796 45.767L37.4943 45.5681L37.6954 46.0652L37.9971 46.5623L38.2987 46.7612L38.4998 46.8606H38.8015H39.1031L39.6059 46.6617L40.2091 46.5623H40.6113L41.1141 46.6617L41.6168 46.7612L42.019 46.96L42.4212 47.3577L42.7228 47.7554L42.8234 48.2525L43.0245 48.6502V49.0479L43.125 49.3461L42.7228 49.0479L42.4212 48.849L42.1196 48.7496H41.7174H41.2146L40.7119 48.849H40.2091L39.7064 48.7496L39.3042 48.4513L39.0026 48.2525L38.7009 47.8548L38.3993 47.4571L38.0976 47.2583L37.6954 46.96L37.2932 46.3635L37.0921 45.8664L36.891 45.6675L36.6899 45.4687H36.3883H35.7515L35.1482 45.5681L34.2433 45.767L33.9416 45.9658L33.5394 46.0652V46.1646V46.96L33.64 47.5566L33.7405 48.0537L33.9416 48.3519L34.1427 48.5508L34.3438 48.6502L34.9471 48.7496L35.6509 48.9484L36.0531 49.2467L36.3548 49.4455L36.8575 49.6444L37.2597 49.8433L37.6619 50.0421L38.0641 50.4398L38.3657 50.8375L38.4663 51.3346L38.5668 51.8317V52.3288L38.6674 52.4282V52.5276L39.7734 52.0305L40.98 51.434L41.6839 51.5334H42.1866L43.0915 51.434L43.8959 51.2351L44.7003 50.9369L45.4041 50.5392L46.0074 50.2409L46.8118 49.545L47.214 49.2467L47.5157 48.849L47.7168 48.5508V48.2525L47.1135 48.0537L46.108 47.8548L47.214 46.96L48.2195 45.9658L49.1244 44.8722L50.0294 43.7785L50.8338 42.5855L51.6381 41.3924L52.342 40.1993L52.9453 38.9069L53.5486 37.4818L54.0513 36.1894L54.4535 34.7643L54.8557 33.3393L55.1573 31.8148L55.3584 30.2904L55.459 28.7659V27.2414V25.8164L55.3584 24.3914L55.1573 22.9663L54.9562 21.6739L54.6546 20.3814L54.2524 19.0889L53.8502 17.7964L53.3475 16.6034L52.8447 15.4103L52.2414 14.2173L51.5376 13.0242L50.8338 11.9306L50.0294 10.9364L49.225 9.8427L48.4206 8.84849L47.5157 7.95371L46.5102 7.05889L45.5047 6.16412L44.4992 5.36874L43.3932 4.6728L42.2871 3.97685L41.1811 3.28091L39.9745 2.68437L38.7679 2.08782L37.4608 1.69016L36.2542 1.19305L34.9471 0.894776L33.64 0.596504L32.1988 0.298272L30.7576 0.0993971L29.4505 0H28.0093H26.4675L25.1604 0.0993971L23.7192 0.298272L22.4121 0.596504L20.9709 0.894776L19.6637 1.19305L18.4572 1.69016L17.15 2.08782L15.9434 2.68437L14.7369 3.28091L13.6308 3.97685L12.5248 4.6728L11.4188 5.36874L10.4133 6.16412L9.4078 7.05889L8.50287 7.95371L7.49738 8.84849L6.69299 9.8427L5.8886 10.9364L5.08421 11.9306L4.38037 13.0242L3.77709 14.2173L3.07325 15.4103L2.5705 16.6034L2.06776 17.7964L1.66557 19.0889L1.26338 20.3814L0.961727 21.6739L0.760633 22.9663L0.559534 24.3914L0.458984 25.8164V27.2414V28.6665L0.559534 29.959L0.760633 31.384L0.961727 32.6765L1.26338 33.969L1.56502 35.162L1.96721 36.4545L2.46995 37.6476L2.9727 38.8406L3.57599 39.9342L4.17928 41.0279L4.88312 42.1215L5.58696 43.2152L6.39134 44.2094L7.19573 45.2036L8.10067 46.0984L9.00561 46.9931L9.91054 47.888L10.916 48.6833L12.0221 49.4787L13.0275 50.1747L14.1336 50.7712L15.2396 51.4671L16.4462 51.9642L17.6528 52.4613L18.8594 52.9584L20.1665 53.3561L21.3731 53.6544L22.6802 53.9526L24.1214 54.1515L25.4285 54.3503L26.7356 54.4497L26.9367 54.5492L27.0373 54.748L27.2384 55.0463L27.3389 55.3446L27.2384 55.6428L27.1378 55.8417L26.8362 56.2393L26.5345 56.8359L26.434 57.1342L26.3335 57.5318L26.1324 57.9295L25.9313 58.4266V59.0231L26.0318 59.5203L26.3335 59.9179L26.6351 60.3156L26.9367 60.6139L27.4395 60.9121L27.8417 61.2104L28.3444 61.4092L28.5455 60.6139V59.8185V59.4208L28.445 59.0231L28.3444 58.6255L28.0428 58.3272L27.7411 58.0289L27.2384 57.7307L27.1378 57.5318L26.9367 57.333V57.1342V56.8359L27.2384 56.4382L27.54 56.0405L27.6406 56.4382L27.9422 56.9353L28.2439 57.6313L28.5455 57.9295L29.1488 58.2278L29.6515 58.7249L29.8526 59.5203L29.9532 60.415L30.3554 60.9121L30.7576 61.5087L31.3609 62.0058L32.0647 62.4035L32.7686 62.7017L33.4724 62.9006L34.1762 63H34.7795L35.785 62.8012L36.6899 62.5029L37.2932 62.0058L37.796 61.6081L37.2932 61.5087L36.6899 61.2104L36.0867 60.8127L35.6845 60.5145L34.8801 59.6197L34.0757 58.8243L33.6735 58.526L33.2713 58.3272L32.8691 58.1284L32.3664 58.0289L31.4614 57.8301L30.5565 57.9295H30.0537L29.6515 57.8301L29.2494 57.6313L28.9477 57.4324L28.6461 57.1342L28.3444 56.8359L28.1433 56.4382L28.0428 55.9411L27.7411 55.444L27.54 54.9469L28.0428 55.1457H28.5455L28.7466 55.5434L29.1488 55.8417L29.551 56.0405L30.0537 56.1399L31.1598 56.2393L32.1653 56.1399L32.5675 56.8359L33.1707 57.333L33.8746 57.8301L34.5784 58.2278L34.9806 57.1342L35.2823 56.0405L35.3828 55.444L35.2823 54.8475L35.1817 54.2509L34.9806 53.6544V53.555L35.4834 53.3561L35.8856 53.2567L36.2878 53.555L36.6899 53.8532L36.9916 54.1515L37.1927 54.5492V55.8417L37.2932 57.1342L37.4943 57.6313L37.6954 58.1284L37.8965 58.6255L38.1982 59.1226L39.0026 59.9179L39.9075 60.7133L40.8124 61.4092L41.9185 61.9063L42.9239 62.3041L43.9294 62.4035H44.6333H45.4377L46.242 62.3041L46.9459 62.1052L47.9514 61.6081L48.8563 61.111L48.4541 61.0116L48.0519 60.8127L47.6497 60.5145L47.2475 60.2162L46.4431 59.4208L46.242 58.99ZM28.3109 54.6818L28.1098 54.7812H27.9087L27.7076 54.6818L27.6071 54.5823H27.8082H28.0093H28.2104H28.512L28.4115 54.6818H28.3109ZM29.1488 27.3077L21.6077 27.5066L21.7082 31.0195L22.1104 31.4171L22.4121 31.9142L22.6132 32.5108L22.7137 33.2067L22.6132 33.7038L22.4121 34.3004L22.3115 34.5986L22.1104 34.8969L21.9093 35.0958L21.7082 35.1951V35.5929H22.3115L22.7137 35.4934L23.1159 35.1951L23.317 34.8969L23.4176 34.4992L23.5181 33.9027L23.7192 33.4056L24.0208 33.0079L24.5236 32.6102L25.5291 32.1131L26.434 31.5166L26.7356 32.1131V32.7096V33.1073V33.4056L26.434 34.1015L26.0318 34.5986L25.4285 34.9963L24.8252 35.1951H24.356H23.8533L23.4511 35.394L23.25 35.5929H29.4505L29.1488 27.3077ZM9.60889 36.4545L12.0556 36.9516L11.6534 36.3551L11.4523 35.7586V35.3609V34.9632L11.7539 35.162L11.955 35.3609L12.2567 35.5597H12.6589H13.1616L13.5638 35.4603H13.966L14.4687 35.6591L14.5693 35.7586L14.7704 35.858V29.5281L9.57538 28.3351V36.4545H9.60889ZM9.60889 27.0095L14.8039 28.302V20.3482L9.60889 19.0558V27.0095ZM28.445 9.21302L21.306 9.31246L21.4066 16.9679H28.7466L28.445 9.21302ZM9.60889 17.7633L14.8039 19.2877V11.9306L9.60889 10.1078V17.7633ZM20.9038 45.4356H20.8033L20.7027 45.3361L20.4011 45.1373L19.9989 45.0379L20.5016 44.839L20.9038 44.6402H21.2055L21.4066 44.7396L21.6077 44.839L21.8088 45.0379L22.1104 45.4356L22.4121 45.7338L22.7137 45.9327L23.1159 46.2309L23.5181 46.3303L24.0208 46.4298L24.423 46.3303L24.8252 46.1315L25.2274 45.9327L25.5291 45.6344L25.7302 45.4356L25.9313 45.3361H25.5291H25.2274L24.9258 45.2367L24.6241 45.0379L24.3225 44.7396L24.0208 44.4413L23.7192 44.1431L23.317 44.0437L22.9148 43.9442L22.5126 44.0437L22.1104 44.1431L21.7082 44.2425H21.306H21.0044L20.4011 44.5408L19.8984 44.7396H19.6637H19.3621L19.161 44.6402L18.8594 44.4413L18.5577 44.0437L18.1555 43.646L17.7533 43.1489L17.6528 42.7512L17.5522 43.1489L17.6528 43.4471V43.7454L17.8539 44.0437L18.055 44.3419L18.1555 44.5408L18.2561 44.839L18.1555 45.2367L17.9544 45.535L17.6528 45.7338L17.2506 45.9327L16.8484 46.1315L16.4462 46.728L16.044 47.424L15.8429 48.1199L15.7423 48.8159L15.9434 49.7107L16.1445 50.5061L15.9434 51.3014V51.8979H16.044H16.2451L16.5467 51.7985L16.8484 51.6991L17.4517 51.3014L17.8539 51.1026L18.1555 50.7049L18.5577 50.3072L18.8594 49.9095L19.0605 49.5119L19.3621 48.617L19.5632 47.5234V47.0263L19.4626 46.5292L19.2615 46.1315L18.9599 45.9327V45.4356V44.9384L19.3621 45.2367L19.8648 45.535L20.267 45.7338L20.5687 45.9327L20.8703 46.2309L21.0714 46.5292L21.172 46.9269L21.2725 47.3245V47.6228L21.172 48.1199L20.9709 48.9153L20.8703 49.8101V50.2078L20.9709 50.6055L21.172 51.0032L21.3731 51.4008L22.3785 52.8259L23.384 54.2509L23.7862 53.9526L24.1884 53.555L24.4901 53.1573L24.6912 52.6602L24.9928 52.1631L25.1939 51.666V51.1689V50.5723V50.0752L24.9928 49.5781L24.7917 49.1804L24.4901 48.6833L24.0879 48.3851L23.6857 47.9874L22.7807 47.6891L21.9764 47.2914L21.6747 46.6949L21.3731 45.9989L21.172 45.8001L20.9038 45.4356Z" fill="white"></path></svg>